<?xml version="1.0" encoding="utf-8"?>
<!-- Generator: Adobe Illustrator 17.0.0, SVG Export Plug-In . SVG Version: 6.00 Build 0)  -->
<!DOCTYPE svg PUBLIC "-//W3C//DTD SVG 1.1//EN" "http://www.w3.org/Graphics/SVG/1.1/DTD/svg11.dtd">
<svg version="1.1" id="Capa_1" xmlns="http://www.w3.org/2000/svg" xmlns:xlink="http://www.w3.org/1999/xlink" x="0px" y="0px"
	 width="510px" height="68px" viewBox="0 0 510 68" enable-background="new 0 0 510 68" xml:space="preserve">
<rect x="-13.07" y="-20.634" fill="#005696" width="535" height="100"/>
<g>
	<path fill="#FFFFFF" d="M359.192,50.164c-1.033,0-1.871-0.797-1.871-1.779v-35.75c0-0.988,0.838-1.8,1.871-1.8h27.184
		c1.025,0,1.867,0.812,1.867,1.8v35.75c0,0.981-0.842,1.779-1.867,1.779H359.192z"/>
	<path fill="#F3B21B" d="M372.891,48.133c0,0,3.659-11.728,14.595-11.728V46.53c0,0,0.377,2.914-2.204,2.914h-24.688
		c0,0-2.489,0.506-2.489-2.914V36.289C358.104,36.289,369.235,36.7,372.891,48.133"/>
	<path fill="#005893" d="M357.927,15.096c0,0-0.092-3.503,3.272-3.503h24.378c0,0,1.817,0.405,1.817,2.824v5.914
		c0,0-12.188,2.209-14.579,12.944c0,0-2.417-11.15-14.888-12.45V15.096z"/>
	<path fill="#12AE55" d="M373.289,40.011c0,0,3.06-14.562,14.279-14.562v7.231C387.568,32.68,378.073,31.082,373.289,40.011"/>
	<path fill="#12AE55" d="M372.212,40.011c0,0-3.072-14.562-14.301-14.562v7.231C357.911,32.68,367.437,31.082,372.212,40.011"/>
	<path fill="#FFFFFF" d="M149.211,39.971c0,1.873-0.453,3.39-1.363,4.574c-0.916,1.207-2.051,2.108-3.472,2.727
		c-1.402,0.619-2.768,1.007-4.098,1.212c-1.335,0.205-2.614,0.3-3.855,0.3h-16.031v-2.278c1.36,0,2.384-0.149,3.03-0.449
		c0.659-0.282,1.078-0.716,1.268-1.253c0.2-0.524,0.305-1.275,0.305-2.238v-21.07c0-1.476-0.305-2.487-0.878-3.073
		c-0.577-0.573-1.828-0.869-3.725-0.869v-2.308c2.27-0.038,4.455-0.092,6.508-0.135c2.057-0.054,3.751-0.106,5.071-0.116
		c1.343-0.046,2.263-0.046,2.798-0.046h0.878c1.625,0,3.331,0.168,5.13,0.516c1.769,0.37,3.394,1.174,4.87,2.42
		c1.461,1.241,2.202,3.05,2.202,5.387c0,1.748-0.596,3.267-1.805,4.529c-1.185,1.269-3.135,2.316-5.86,3.113
		c1.861,0.369,3.462,0.939,4.842,1.756c1.372,0.814,2.427,1.834,3.124,3.087C148.86,37.001,149.211,38.405,149.211,39.971
		 M141.11,23.461c0-1.14-0.258-2.147-0.79-3.01c-0.533-0.863-1.303-1.521-2.345-2.029c-1.023-0.466-2.283-0.705-3.774-0.705h-2.467
		v11.96h1.933c2.526,0,4.389-0.554,5.614-1.663C140.497,26.878,141.11,25.36,141.11,23.461 M141.975,39.55
		c0-2.263-0.57-4.031-1.697-5.281c-1.107-1.256-2.692-1.892-4.736-1.892h-3.807v8.027v0.681c0,1.203,0.062,2.141,0.207,2.832
		c0.14,0.682,0.492,1.205,1.051,1.573c0.563,0.362,1.478,0.562,2.692,0.562c1.638,0,3.099-0.524,4.374-1.555
		C141.339,43.464,141.975,41.809,141.975,39.55"/>
	<path fill="#FFFFFF" d="M175.832,43.585c0,1.244-0.246,2.315-0.728,3.178c-0.494,0.89-1.153,1.538-1.975,1.949
		c-0.829,0.412-1.762,0.629-2.804,0.629c-1.301,0-2.41-0.32-3.285-0.969c-0.875-0.646-1.405-1.431-1.585-2.319
		c-2.62,2.2-5.257,3.287-7.921,3.287c-1.68,0-3.078-0.427-4.153-1.278c-1.088-0.876-1.637-2.009-1.637-3.414
		c0-1.177,0.312-2.225,0.875-3.164c0.589-0.941,1.434-1.779,2.552-2.531c1.136-0.742,2.486-1.402,4.026-1.953
		c1.549-0.57,3.488-1.181,5.824-1.791V33.81c0-1.162-0.266-2.079-0.806-2.743c-0.522-0.676-1.474-1.003-2.889-1.003
		c-1.235,0-2.089,0.268-2.618,0.771c-0.544,0.537-0.897,1.351-1.051,2.415c-0.147,0.742-0.374,1.368-0.707,1.856
		c-0.341,0.473-1.058,0.714-2.107,0.714c-0.665,0-1.244-0.191-1.746-0.573c-0.497-0.41-0.753-0.988-0.753-1.753
		c0-1.525,0.786-2.861,2.357-3.992c1.605-1.122,4.046-1.703,7.331-1.703c3.443,0,5.831,0.608,7.115,1.819
		c1.291,1.207,1.927,2.838,1.927,4.884v7.767c0,0.993,0.043,1.718,0.098,2.171c0.037,0.464,0.165,0.816,0.374,1.05
		c0.217,0.231,0.56,0.347,1.012,0.347c0.406,0,0.757-0.234,1.078-0.647c0.305-0.462,0.445-0.982,0.445-1.606H175.832z
		 M165.019,43.767v-6.088c-2.988,0.982-4.897,1.937-5.7,2.89c-0.793,0.924-1.219,1.854-1.219,2.765c0,0.749,0.229,1.366,0.658,1.821
		c0.439,0.449,1.063,0.683,1.872,0.683c0.854,0,1.641-0.179,2.286-0.551C163.573,44.905,164.282,44.41,165.019,43.767"/>
	<path fill="#FFFFFF" d="M202.423,48.783h-12.196v-2.278c0.898,0,1.57-0.116,1.976-0.385c0.403-0.239,0.668-0.608,0.743-1.121
		c0.092-0.473,0.144-1.297,0.144-2.435v-6.962c0-1.396-0.187-2.502-0.593-3.314c-0.389-0.819-1.192-1.222-2.404-1.222
		c-1.641,0-2.87,0.681-3.679,1.995c-0.809,1.315-1.212,2.833-1.212,4.574v5.501c0,1.291,0.173,2.18,0.53,2.649
		c0.373,0.498,1.147,0.718,2.342,0.718v2.278h-12.437v-2.278c1.012,0,1.765-0.09,2.26-0.283c0.489-0.168,0.806-0.527,0.957-1.005
		c0.173-0.488,0.232-1.259,0.232-2.302v-7.956c0-1.132-0.206-1.897-0.613-2.247c-0.442-0.352-1.375-0.526-2.836-0.526v-2.259
		l9.165-2.127c0.14,0.954,0.21,1.833,0.21,2.643c0,0.233-0.007,0.428-0.027,0.557c0,0.183-0.01,0.341-0.01,0.535
		c1.006-1.098,2.015-1.985,3.099-2.69c1.062-0.688,2.398-1.045,4.013-1.045c1.336,0,2.548,0.256,3.633,0.761
		c1.071,0.516,1.92,1.284,2.538,2.319c0.596,1.028,0.911,2.268,0.911,3.727v8.308c0,1.372,0.166,2.329,0.524,2.836
		c0.361,0.51,1.271,0.754,2.729,0.754V48.783z"/>
	<path fill="#FFFFFF" d="M224.562,43.767c-1.897,3.901-4.969,5.808-9.165,5.808c-1.979,0-3.819-0.406-5.579-1.242
		c-1.753-0.83-3.151-2.048-4.225-3.633c-1.045-1.612-1.573-3.461-1.573-5.598c0-1.466,0.272-2.897,0.845-4.233
		c0.59-1.339,1.409-2.571,2.479-3.657c1.107-1.074,2.388-1.918,3.866-2.501c1.49-0.623,3.072-0.911,4.776-0.911
		c2.152,0,4.072,0.443,5.726,1.337c1.648,0.893,2.467,2.144,2.467,3.707c0,0.727-0.269,1.337-0.773,1.865
		c-0.511,0.5-1.117,0.747-1.785,0.747c-0.648,0-1.143-0.149-1.496-0.473c-0.341-0.31-0.561-0.629-0.675-0.946
		c-0.118-0.336-0.282-0.936-0.475-1.756c-0.196-0.81-0.537-1.379-1.029-1.701c-0.455-0.339-1.107-0.516-1.959-0.516
		c-1.441,0-2.712,0.563-3.803,1.667c-1.121,1.105-1.668,3.179-1.668,6.211c0,1.629,0.22,3.113,0.675,4.482
		c0.446,1.351,1.137,2.443,2.13,3.236c0.949,0.796,2.126,1.196,3.547,1.196c1.549,0,2.725-0.4,3.537-1.206
		c0.817-0.817,1.553-1.772,2.182-2.845L224.562,43.767z"/>
	<path fill="#FFFFFF" d="M245.805,31.688c0,0.96-0.275,1.7-0.846,2.243c-0.547,0.565-1.202,0.827-1.958,0.827
		c-0.9,0-1.69-0.452-2.358-1.37c-0.311-0.406-0.57-0.708-0.766-0.89c-0.216-0.185-0.508-0.261-0.875-0.261
		c-1.228,0-2.195,0.696-2.865,2.07c-0.672,1.39-1.023,2.836-1.023,4.325v4.283c0,1.372,0.167,2.329,0.498,2.836
		c0.341,0.51,1.235,0.754,2.676,0.754h1.268v2.278h-14.642v-2.278h1.239c1.291,0,2.106-0.244,2.401-0.783
		c0.298-0.531,0.449-1.461,0.449-2.807v-7.189c0-1.098-0.111-1.88-0.312-2.366c-0.216-0.475-0.599-0.783-1.15-0.934
		c-0.537-0.177-1.418-0.241-2.627-0.241v-2.259l9.188-2.127c0.229,0.833,0.456,2.617,0.659,5.341
		c0.431-0.955,1.022-1.851,1.729-2.658c0.698-0.806,1.52-1.461,2.391-1.942c0.898-0.498,1.792-0.74,2.735-0.74
		c1.277,0,2.31,0.388,3.05,1.145C245.435,29.686,245.805,30.602,245.805,31.688"/>
	<path fill="#FFFFFF" d="M267.375,37.942h-14.481c0.012,0.314,0.049,0.982,0.125,1.992c0.066,1.024,0.291,2.066,0.668,3.133
		c0.36,1.066,1.009,1.965,1.9,2.696c0.89,0.738,2.125,1.093,3.642,1.093c0.832,0,1.841-0.213,3.007-0.662
		c1.189-0.442,2.204-1.301,3.076-2.56l1.831,1.297c-1.851,3.115-4.789,4.644-8.825,4.644c-1.812,0-3.462-0.253-4.953-0.792
		c-1.477-0.542-2.741-1.296-3.77-2.278c-1.038-0.97-1.831-2.095-2.378-3.422c-0.554-1.31-0.825-2.717-0.825-4.231
		c0-1.976,0.455-3.827,1.382-5.513c0.91-1.689,2.214-3.041,3.944-4.035c1.707-1,3.675-1.505,5.876-1.505
		c2.14,0,3.951,0.49,5.435,1.46c1.487,0.96,2.585,2.21,3.299,3.753C267.024,34.553,267.375,36.208,267.375,37.942 M261.528,35.681
		c0-3.754-1.402-5.617-4.236-5.617c-1.365,0-2.417,0.518-3.138,1.559c-0.73,1.032-1.146,2.393-1.225,4.058H261.528z M261.885,16.25
		l-6.958,8.419h-1.687l2.561-8.419H261.885z"/>
	<path fill="#FFFFFF" d="M296.347,48.483c-3.311,0.154-6.363,0.506-9.122,1.092c-0.223-0.461-0.357-1.334-0.4-2.572
		c-2.02,1.723-4.225,2.572-6.632,2.572c-1.868,0-3.571-0.498-5.15-1.483c-1.571-0.993-2.829-2.37-3.76-4.105
		c-0.943-1.734-1.411-3.621-1.411-5.645c0-1.273,0.203-2.522,0.609-3.778c0.423-1.229,1.055-2.379,1.923-3.433
		c0.865-1.029,1.959-1.855,3.233-2.441c1.294-0.601,2.774-0.889,4.413-0.889c1.205,0,2.247,0.17,3.115,0.462
		c0.852,0.326,1.542,0.683,2.07,1.073c0.518,0.407,1.042,0.885,1.592,1.439v-8.06c0-1.113-0.095-1.893-0.279-2.359
		c-0.173-0.5-0.491-0.794-0.969-0.931c-0.488-0.123-1.264-0.209-2.354-0.253v-2.259l9.666-2.108v27.564
		c0,1.181,0.049,2.013,0.147,2.465c0.115,0.455,0.397,0.795,0.861,1.005c0.476,0.215,1.288,0.327,2.45,0.376V48.483z
		 M286.825,43.834v-9.976c-0.655-0.845-1.451-1.608-2.38-2.291c-0.902-0.686-1.972-1.035-3.24-1.035
		c-0.776,0-1.481,0.237-2.168,0.667c-0.682,0.442-1.215,1.002-1.632,1.698c-0.691,1.14-1.045,3.046-1.045,5.736
		c0,2.722,0.508,4.775,1.478,6.158c0.996,1.375,2.211,2.065,3.681,2.065c1.035,0,2.024-0.267,2.926-0.802
		C285.374,45.513,286.17,44.765,286.825,43.834"/>
	<path fill="#FFFFFF" d="M309.718,48.783h-12.781v-2.278h0.691c0.908,0,1.573-0.128,1.975-0.388
		c0.419-0.264,0.674-0.626,0.773-1.118c0.092-0.473,0.141-1.166,0.141-2.084v-7.312c0-1.01-0.066-1.746-0.191-2.167
		c-0.104-0.424-0.409-0.729-0.897-0.939c-0.505-0.199-1.32-0.298-2.493-0.313v-2.259l9.654-2.127v15.115
		c0,1.372,0.163,2.329,0.504,2.836c0.324,0.51,1.211,0.754,2.623,0.754V48.783z M307.069,18.173c0,0.996-0.344,1.82-1.012,2.526
		c-0.659,0.695-1.465,1.034-2.421,1.034c-0.92,0-1.717-0.354-2.413-1.052c-0.672-0.719-1.012-1.555-1.012-2.507
		c0-0.991,0.341-1.826,1.012-2.532c0.684-0.695,1.467-1.06,2.413-1.06c0.969,0,1.776,0.351,2.434,1.039
		C306.734,16.301,307.069,17.149,307.069,18.173"/>
	<path fill="#FFFFFF" d="M326.846,44.41c-0.852,1.851-1.837,3.174-2.964,3.98c-1.137,0.804-2.457,1.185-3.98,1.185
		c-1.854,0-3.217-0.38-4.101-1.155c-0.88-0.797-1.415-1.682-1.622-2.656c-0.213-0.972-0.314-2.069-0.314-3.297V30.88h-3.554v-2.271
		c1.503,0,2.791-0.279,3.878-0.877c1.101-0.596,1.976-1.391,2.615-2.391c0.629-0.987,1.038-2.081,1.209-3.226h1.936v6.494h6.659
		v2.271h-6.659v11.742c0,1.428,0.085,2.448,0.265,3.079c0.183,0.651,0.629,0.963,1.336,0.963c0.746,0,1.379-0.312,1.853-0.934
		c0.495-0.608,0.957-1.379,1.422-2.296L326.846,44.41z"/>
	<path fill="#FFFFFF" d="M351.278,38.632c0,2.228-0.531,4.173-1.563,5.842c-1.038,1.643-2.431,2.919-4.203,3.79
		c-1.766,0.885-3.694,1.31-5.808,1.31c-1.975,0-3.846-0.38-5.611-1.185c-1.763-0.806-3.205-2.038-4.339-3.675
		c-1.121-1.648-1.687-3.661-1.687-6.029c0-3.562,1.152-6.26,3.49-8.107c2.313-1.854,5.076-2.779,8.278-2.779
		c2.401,0,4.447,0.492,6.187,1.487c1.713,0.969,3.037,2.311,3.931,3.963C350.839,34.901,351.278,36.7,351.278,38.632
		 M344.776,38.469c0-2.764-0.354-4.873-1.071-6.283c-0.704-1.412-2.086-2.122-4.117-2.122c-1.301,0-2.328,0.317-3.059,0.925
		c-0.728,0.614-1.232,1.577-1.513,2.857c-0.298,1.293-0.433,2.951-0.433,5.007c0,2.519,0.324,4.581,0.953,6.118
		c0.651,1.576,2.05,2.351,4.209,2.351c1.438,0,2.532-0.43,3.262-1.294c0.754-0.855,1.244-1.92,1.438-3.194
		C344.667,41.561,344.776,40.108,344.776,38.469"/>
</g>
</svg>
